<svg xmlns="http://www.w3.org/2000/svg" viewBox="0 0 64 64">
  <defs>
    <linearGradient id="bg" x1="0%" y1="0%" x2="100%" y2="100%">
      <stop offset="0%" stop-color="#0d4050" />
      <stop offset="55%" stop-color="#0f5f73" />
      <stop offset="100%" stop-color="#6ec9ae" />
    </linearGradient>
    <linearGradient id="accent" x1="0%" y1="0%" x2="100%" y2="100%">
      <stop offset="0%" stop-color="#f0b04f" />
      <stop offset="100%" stop-color="#de7e2f" />
    </linearGradient>
  </defs>
  <rect width="64" height="64" rx="18" fill="url(#bg)" />
  <path
    d="M19 15h17.5c8 0 13 4.8 13 12.1 0 5.7-3 9.5-8.1 11.3L50 49H39.5L33 39.9h-4.8V49H19V15Zm9.2 7.5v10.2h7.3c3 0 4.9-2 4.9-5.1 0-3.1-1.9-5.1-4.9-5.1h-7.3Z"
    fill="#fff7ea"
  />
  <circle cx="48" cy="16" r="4" fill="url(#accent)" />
  <path
    d="M16 52c7-6 16-8 26-6"
    fill="none"
    stroke="rgba(255,247,234,0.45)"
    stroke-linecap="round"
    stroke-width="2.4"
  />
</svg>
